<svg width="126" height="89" viewBox="0 0 126 89" fill="none" xmlns="http://www.w3.org/2000/svg">
<path d="M5.68295 47.12V6.48L4.88296 0H41.923C45.4963 0 48.3496 0.400001 50.483 1.2C52.6696 1.94667 54.2963 2.98667 55.363 4.32C56.483 5.6 57.203 7.12 57.523 8.88C57.8963 10.5867 58.083 12.4 58.083 14.32V20.64C58.083 23.2 57.6563 25.5733 56.803 27.76C56.003 29.8933 54.483 31.6267 52.243 32.96C50.0563 34.24 46.883 34.88 42.723 34.88H37.203C33.843 34.88 30.6963 34.8 27.763 34.64C24.883 34.48 22.723 34.3467 21.283 34.24V47.12H5.68295ZM21.283 24H37.843C39.603 24 40.8296 23.6533 41.523 22.96C42.2163 22.2667 42.563 21.1467 42.563 19.6V15.52C42.563 13.9733 42.243 12.8533 41.603 12.16C40.963 11.4133 39.7363 11.04 37.923 11.04H21.283V24Z" fill="#FFC700"/>
<path d="M78.298 47.12C74.6713 47.12 72.0046 46.96 70.298 46.64C68.5913 46.32 67.738 45.9467 67.738 45.52L72.538 35.2C73.7646 35.4133 76.298 35.6267 80.138 35.84C83.978 36 88.9646 36.08 95.098 36.08H101.418C103.285 36.08 104.538 35.8133 105.178 35.28C105.818 34.7467 106.138 33.9733 106.138 32.96V32.16C106.138 30.88 105.818 30 105.178 29.52C104.538 29.04 103.285 28.8 101.418 28.8H83.098C77.7113 28.8 73.7913 27.8133 71.338 25.84C68.8846 23.8133 67.658 20.5333 67.658 16V13.12C67.658 10.7733 68.0846 8.61334 68.938 6.64C69.8446 4.66667 71.3646 3.09333 73.498 1.92C75.6313 0.693337 78.5646 0.0800037 82.298 0.0800037H108.858C112.111 0.0800037 114.805 0.26667 116.938 0.640001C119.125 1.01334 120.218 1.41334 120.218 1.84L117.818 11.76C116.325 11.6 113.498 11.44 109.338 11.28C105.231 11.0667 100.005 10.96 93.658 10.96L87.898 10.88C86.2446 10.88 85.0713 11.12 84.378 11.6C83.6846 12.0267 83.3113 12.8533 83.258 14.08V14.64C83.258 15.8667 83.6313 16.72 84.378 17.2C85.1246 17.68 86.3246 17.92 87.978 17.92H105.578C108.991 17.92 111.898 18.2667 114.298 18.96C116.698 19.6533 118.538 20.9333 119.818 22.8C121.098 24.6133 121.738 27.3067 121.738 30.88V33.76C121.738 37.76 120.698 40.9867 118.618 43.44C116.591 45.8933 113.045 47.12 107.978 47.12H78.298Z" fill="#FFC700"/>
<path d="M0 83.12V65.6655H6.88636C8.21023 65.6655 9.33807 65.9183 10.2699 66.424C11.2017 66.924 11.9119 67.62 12.4006 68.512C12.8949 69.3984 13.142 70.4211 13.142 71.5802C13.142 72.7393 12.892 73.7621 12.392 74.6484C11.892 75.5348 11.1676 76.2251 10.2188 76.7194C9.27557 77.2138 8.13352 77.4609 6.79261 77.4609H2.40341V74.5035H6.19602C6.90625 74.5035 7.49148 74.3814 7.9517 74.137C8.41761 73.887 8.76421 73.5433 8.99148 73.1058C9.22443 72.6626 9.34091 72.1541 9.34091 71.5802C9.34091 71.0007 9.22443 70.495 8.99148 70.0632C8.76421 69.6257 8.41761 69.2876 7.9517 69.049C7.4858 68.8047 6.89489 68.6825 6.17898 68.6825H3.69034V83.12H0Z" fill="#FFC700"/>
<path d="M19.1016 65.6655V83.12H15.4709V65.6655H19.1016Z" fill="#FFC700"/>
<path d="M25.7429 83.3672C24.9077 83.3672 24.1634 83.2223 23.5099 82.9325C22.8565 82.637 22.3395 82.2024 21.9588 81.6285C21.5838 81.049 21.3963 80.3274 21.3963 79.4638C21.3963 78.7365 21.5298 78.1257 21.7969 77.6314C22.0639 77.1371 22.4276 76.7393 22.8878 76.4382C23.348 76.137 23.8707 75.9098 24.456 75.7564C25.0469 75.603 25.6662 75.495 26.3139 75.4325C27.0753 75.353 27.6889 75.2791 28.1548 75.2109C28.6207 75.1371 28.9588 75.0291 29.169 74.887C29.3793 74.745 29.4844 74.5348 29.4844 74.2564V74.2052C29.4844 73.6655 29.3139 73.2478 28.973 72.9524C28.6378 72.6569 28.1605 72.5092 27.5412 72.5092C26.8878 72.5092 26.3679 72.6541 25.9815 72.9439C25.5952 73.228 25.3395 73.5859 25.2145 74.0177L21.8565 73.745C22.027 72.9495 22.3622 72.262 22.8622 71.6825C23.3622 71.0973 24.0071 70.6484 24.7969 70.3359C25.5923 70.0177 26.5128 69.8586 27.5582 69.8586C28.2855 69.8586 28.9815 69.9439 29.6463 70.1143C30.3168 70.2848 30.9105 70.549 31.4276 70.9069C31.9503 71.2649 32.3622 71.7251 32.6634 72.2876C32.9645 72.8444 33.1151 73.512 33.1151 74.2905V83.12H29.6719V81.3047H29.5696C29.3594 81.7138 29.0781 82.0745 28.7259 82.387C28.3736 82.6939 27.9503 82.9353 27.456 83.1115C26.9616 83.2819 26.3906 83.3672 25.7429 83.3672ZM26.7827 80.8615C27.3168 80.8615 27.7884 80.7564 28.1974 80.5461C28.6065 80.3302 28.9276 80.0405 29.1605 79.6768C29.3935 79.3132 29.5099 78.9013 29.5099 78.441V77.0518C29.3963 77.1257 29.2401 77.1939 29.0412 77.2564C28.848 77.3132 28.6293 77.3672 28.3849 77.4183C28.1406 77.4638 27.8963 77.5064 27.652 77.5461C27.4077 77.5802 27.1861 77.6115 26.9872 77.6399C26.5611 77.7024 26.1889 77.8018 25.8707 77.9382C25.5526 78.0745 25.3054 78.2592 25.1293 78.4922C24.9531 78.7194 24.8651 79.0035 24.8651 79.3444C24.8651 79.8388 25.044 80.2166 25.402 80.478C25.7656 80.7336 26.2259 80.8615 26.7827 80.8615Z" fill="#FFC700"/>
<path d="M37.7045 88.0291C37.2443 88.0291 36.8125 87.9922 36.4091 87.9183C36.0114 87.8501 35.6818 87.762 35.4205 87.6541L36.2386 84.9439C36.6648 85.0746 37.0483 85.1456 37.3892 85.1569C37.7358 85.1683 38.0341 85.0888 38.2841 84.9183C38.5398 84.7478 38.7472 84.4581 38.9062 84.049L39.1193 83.495L34.4233 70.0291H38.2415L40.9517 79.6427H41.0881L43.8239 70.0291H47.6676L42.5795 84.5348C42.3352 85.2393 42.0028 85.853 41.5824 86.3757C41.1676 86.9041 40.642 87.3103 40.0057 87.5944C39.3693 87.8842 38.6023 88.0291 37.7045 88.0291Z" fill="#FFC700"/>
<path d="M59.0625 70.6853C58.9943 69.9978 58.7017 69.4638 58.1847 69.0831C57.6676 68.7024 56.9659 68.512 56.0795 68.512C55.4773 68.512 54.9688 68.5973 54.554 68.7677C54.1392 68.9325 53.821 69.1626 53.5994 69.4581C53.3835 69.7535 53.2756 70.0888 53.2756 70.4638C53.2642 70.7763 53.3295 71.049 53.4716 71.2819C53.6193 71.5149 53.821 71.7166 54.0767 71.887C54.3324 72.0518 54.6278 72.1967 54.9631 72.3217C55.2983 72.441 55.6562 72.5433 56.0369 72.6285L57.6051 73.0035C58.3665 73.174 59.0653 73.4013 59.7017 73.6853C60.3381 73.9694 60.8892 74.3189 61.3551 74.7336C61.821 75.1484 62.1818 75.637 62.4375 76.1995C62.6989 76.762 62.8324 77.4069 62.8381 78.1342C62.8324 79.2024 62.5597 80.1285 62.0199 80.9126C61.4858 81.691 60.7131 82.2961 59.7017 82.728C58.696 83.1541 57.483 83.3672 56.0625 83.3672C54.6534 83.3672 53.4261 83.1513 52.3807 82.7194C51.3409 82.2876 50.5284 81.6484 49.9432 80.8018C49.3636 79.9495 49.0597 78.8956 49.0312 77.6399H52.6023C52.642 78.2251 52.8097 78.7138 53.1051 79.1058C53.4062 79.4922 53.8068 79.7848 54.3068 79.9836C54.8125 80.1768 55.3835 80.2734 56.0199 80.2734C56.6449 80.2734 57.1875 80.1825 57.6477 80.0007C58.1136 79.8189 58.4744 79.566 58.7301 79.2422C58.9858 78.9183 59.1136 78.5461 59.1136 78.1257C59.1136 77.7336 58.9972 77.4041 58.7642 77.137C58.5369 76.87 58.2017 76.6427 57.7585 76.4552C57.321 76.2677 56.7841 76.0973 56.1477 75.9439L54.2472 75.4666C52.7756 75.1086 51.6136 74.549 50.7614 73.7876C49.9091 73.0263 49.4858 72.0007 49.4915 70.7109C49.4858 69.6541 49.767 68.7308 50.3352 67.941C50.9091 67.1513 51.696 66.5348 52.696 66.0916C53.696 65.6484 54.8324 65.4268 56.1051 65.4268C57.4006 65.4268 58.5312 65.6484 59.4972 66.0916C60.4688 66.5348 61.2244 67.1513 61.7642 67.941C62.304 68.7308 62.5824 69.6456 62.5994 70.6853H59.0625Z" fill="#FFC700"/>
<path d="M65.2521 88.0291V70.0291H68.8317V72.228H68.9936C69.1527 71.8757 69.3828 71.5177 69.684 71.1541C69.9908 70.7848 70.3885 70.478 70.8771 70.2336C71.3714 69.9836 71.9851 69.8586 72.718 69.8586C73.6726 69.8586 74.5533 70.1086 75.3601 70.6086C76.1669 71.103 76.8118 71.8501 77.2947 72.8501C77.7777 73.8444 78.0192 75.0916 78.0192 76.5916C78.0192 78.0518 77.7834 79.2848 77.3118 80.2905C76.8459 81.2905 76.2095 82.049 75.4027 82.566C74.6016 83.0774 73.7038 83.3331 72.7095 83.3331C72.005 83.3331 71.4055 83.2166 70.9112 82.9836C70.4226 82.7507 70.022 82.4581 69.7095 82.1058C69.397 81.7478 69.1584 81.3871 68.9936 81.0234H68.8828V88.0291H65.2521ZM68.8061 76.5745C68.8061 77.353 68.9141 78.0319 69.13 78.6115C69.3459 79.191 69.6584 79.6427 70.0675 79.9666C70.4766 80.2848 70.9737 80.4439 71.559 80.4439C72.1499 80.4439 72.6499 80.2819 73.059 79.9581C73.468 79.6285 73.7777 79.174 73.9879 78.5944C74.2038 78.0092 74.3118 77.3359 74.3118 76.5745C74.3118 75.8189 74.2067 75.1541 73.9965 74.5802C73.7862 74.0064 73.4766 73.5575 73.0675 73.2336C72.6584 72.9098 72.1555 72.7478 71.559 72.7478C70.968 72.7478 70.468 72.9041 70.059 73.2166C69.6555 73.5291 69.3459 73.9723 69.13 74.5461C68.9141 75.12 68.8061 75.7961 68.8061 76.5745Z" fill="#FFC700"/>
<path d="M86.3544 83.3757C85.0305 83.3757 83.8857 83.0944 82.9197 82.5319C81.9595 81.9638 81.218 81.174 80.6953 80.1626C80.1726 79.1456 79.9112 77.9666 79.9112 76.6257C79.9112 75.2734 80.1726 74.0916 80.6953 73.0802C81.218 72.0632 81.9595 71.2734 82.9197 70.7109C83.8857 70.1427 85.0305 69.8586 86.3544 69.8586C87.6783 69.8586 88.8203 70.1427 89.7805 70.7109C90.7465 71.2734 91.4908 72.0632 92.0135 73.0802C92.5362 74.0916 92.7976 75.2734 92.7976 76.6257C92.7976 77.9666 92.5362 79.1456 92.0135 80.1626C91.4908 81.174 90.7465 81.9638 89.7805 82.5319C88.8203 83.0944 87.6783 83.3757 86.3544 83.3757ZM86.3715 80.5632C86.9737 80.5632 87.4766 80.3927 87.88 80.0518C88.2834 79.7052 88.5874 79.2336 88.7919 78.637C89.0021 78.0405 89.1072 77.3615 89.1072 76.6001C89.1072 75.8388 89.0021 75.1598 88.7919 74.5632C88.5874 73.9666 88.2834 73.495 87.88 73.1484C87.4766 72.8018 86.9737 72.6285 86.3715 72.6285C85.7635 72.6285 85.2521 72.8018 84.8374 73.1484C84.4283 73.495 84.1186 73.9666 83.9084 74.5632C83.7038 75.1598 83.6016 75.8388 83.6016 76.6001C83.6016 77.3615 83.7038 78.0405 83.9084 78.637C84.1186 79.2336 84.4283 79.7052 84.8374 80.0518C85.2521 80.3927 85.7635 80.5632 86.3715 80.5632Z" fill="#FFC700"/>
<path d="M95.1584 83.12V70.0291H98.6783V72.3132H98.8146C99.0533 71.5007 99.4538 70.887 100.016 70.4723C100.579 70.0518 101.227 69.8416 101.96 69.8416C102.141 69.8416 102.337 69.853 102.548 69.8757C102.758 69.8984 102.942 69.9297 103.102 69.9694V73.191C102.931 73.1399 102.695 73.0944 102.394 73.0547C102.093 73.0149 101.817 72.995 101.567 72.995C101.033 72.995 100.556 73.1115 100.136 73.3444C99.7209 73.5717 99.3913 73.8899 99.147 74.299C98.9084 74.7081 98.7891 75.1797 98.7891 75.7138V83.12H95.1584Z" fill="#FFC700"/>
<path d="M112.598 70.0291V72.7564H104.714V70.0291H112.598ZM106.504 66.8927H110.135V79.0973C110.135 79.4325 110.186 79.6939 110.288 79.8814C110.391 80.0632 110.533 80.191 110.714 80.2649C110.902 80.3388 111.118 80.3757 111.362 80.3757C111.533 80.3757 111.703 80.3615 111.874 80.3331C112.044 80.299 112.175 80.2734 112.266 80.2564L112.837 82.9581C112.655 83.0149 112.399 83.0802 112.07 83.1541C111.74 83.2336 111.339 83.2819 110.868 83.299C109.993 83.3331 109.226 83.2166 108.567 82.9495C107.913 82.6825 107.405 82.2677 107.041 81.7052C106.678 81.1427 106.499 80.4325 106.504 79.5745V66.8927Z" fill="#FFC700"/>
<path d="M125.691 73.762L122.367 73.9666C122.31 73.6825 122.188 73.4268 122.001 73.1995C121.813 72.9666 121.566 72.7819 121.259 72.6456C120.958 72.5035 120.597 72.4325 120.177 72.4325C119.614 72.4325 119.14 72.5518 118.754 72.7905C118.367 73.0234 118.174 73.3359 118.174 73.728C118.174 74.0405 118.299 74.3047 118.549 74.5206C118.799 74.7365 119.228 74.9098 119.836 75.0405L122.205 75.5177C123.478 75.7791 124.427 76.1995 125.052 76.7791C125.677 77.3586 125.989 78.12 125.989 79.0632C125.989 79.9211 125.737 80.674 125.231 81.3217C124.731 81.9694 124.043 82.4751 123.168 82.8388C122.299 83.1967 121.296 83.3757 120.16 83.3757C118.427 83.3757 117.046 83.0149 116.018 82.2933C114.995 81.566 114.396 80.5774 114.219 79.3274L117.79 79.1399C117.898 79.6683 118.16 80.0717 118.575 80.3501C118.989 80.6228 119.521 80.7592 120.168 80.7592C120.805 80.7592 121.316 80.637 121.702 80.3927C122.094 80.1427 122.293 79.8217 122.299 79.4297C122.293 79.1001 122.154 78.8302 121.881 78.62C121.609 78.4041 121.188 78.2393 120.62 78.1257L118.353 77.674C117.075 77.4183 116.123 76.9751 115.498 76.3444C114.879 75.7138 114.569 74.9098 114.569 73.9325C114.569 73.0916 114.796 72.3672 115.251 71.7592C115.711 71.1513 116.356 70.6825 117.185 70.353C118.021 70.0234 118.998 69.8586 120.117 69.8586C121.771 69.8586 123.072 70.2081 124.021 70.9069C124.975 71.6058 125.532 72.5575 125.691 73.762Z" fill="#FFC700"/>
<path d="M38.881 44.881L53.307 30.455L38.881 16.0289H70.9388L85.3649 30.455L70.9388 44.881H38.881ZM62.6439 40.3528H69.0554L78.9533 30.455L69.0554 20.5571H62.6439L72.5417 30.455L62.6439 40.3528ZM49.8207 40.3528H56.2323L66.1302 30.455L56.2323 20.5571H49.8207L59.7186 30.455L49.8207 40.3528Z" fill="#B3B3B3" fill-opacity="0.8"/>
</svg>
